<svg width="361" height="213" viewBox="0 0 361 213" fill="none" xmlns="http://www.w3.org/2000/svg">
<path d="M18.3636 191.534V190.545H30.5938V191.534H25.0114V208H23.946V191.534H18.3636ZM37.3161 208.273C36.1342 208.273 35.1058 207.98 34.2308 207.395C33.3558 206.81 32.6797 206.009 32.2024 204.991C31.7251 203.974 31.4865 202.815 31.4865 201.514C31.4865 200.207 31.7251 199.043 32.2024 198.02C32.6854 196.997 33.3473 196.19 34.1882 195.599C35.0291 195.009 35.9893 194.713 37.0689 194.713C37.8018 194.713 38.495 194.861 39.1484 195.156C39.8075 195.446 40.3871 195.866 40.8871 196.418C41.3928 196.969 41.7876 197.634 42.0717 198.412C42.3615 199.19 42.5064 200.065 42.5064 201.037V201.685H32.1428V200.739H41.4666C41.4666 199.79 41.2734 198.935 40.8871 198.173C40.5007 197.412 39.9751 196.807 39.3104 196.358C38.6456 195.909 37.8984 195.685 37.0689 195.685C36.1996 195.685 35.424 195.929 34.7422 196.418C34.0661 196.901 33.5291 197.554 33.1314 198.378C32.7393 199.202 32.5348 200.122 32.5178 201.139V201.565C32.5178 202.656 32.7081 203.636 33.0888 204.506C33.4751 205.369 34.0263 206.054 34.7422 206.56C35.4581 207.06 36.3161 207.31 37.3161 207.31C38.032 207.31 38.6428 207.19 39.1484 206.952C39.6598 206.707 40.0774 206.412 40.4013 206.065C40.7251 205.719 40.9695 205.384 41.1342 205.06L42.0803 205.443C41.8814 205.881 41.5717 206.318 41.1513 206.756C40.7365 207.187 40.2081 207.548 39.5661 207.838C38.9297 208.128 38.1797 208.273 37.3161 208.273ZM50.995 208.273C49.8814 208.273 48.9013 207.98 48.0547 207.395C47.2081 206.804 46.5462 205.997 46.0689 204.974C45.5973 203.952 45.3615 202.793 45.3615 201.497C45.3615 200.202 45.6001 199.043 46.0774 198.02C46.5547 196.997 47.2166 196.19 48.0632 195.599C48.9098 195.009 49.8842 194.713 50.9865 194.713C51.8161 194.713 52.5717 194.884 53.2536 195.224C53.9411 195.565 54.5092 196.04 54.9581 196.648C55.4126 197.256 55.7024 197.96 55.8274 198.761H54.7706C54.6001 197.875 54.174 197.142 53.4922 196.562C52.8161 195.977 51.9837 195.685 50.995 195.685C50.1087 195.685 49.3189 195.935 48.6257 196.435C47.9325 196.929 47.3871 197.614 46.9893 198.489C46.5916 199.358 46.3928 200.355 46.3928 201.48C46.3928 202.588 46.5859 203.582 46.9723 204.463C47.3587 205.338 47.8984 206.031 48.5916 206.543C49.2848 207.054 50.0859 207.31 50.995 207.31C51.6371 207.31 52.2223 207.182 52.7507 206.926C53.2848 206.67 53.7308 206.307 54.0888 205.835C54.4467 205.364 54.6825 204.812 54.7962 204.182H55.853C55.728 204.989 55.4439 205.699 55.0007 206.312C54.5575 206.926 53.9922 207.406 53.3047 207.753C52.6172 208.099 51.8473 208.273 50.995 208.273ZM60.4382 199.511V208H59.3984V190.545H60.4382V196.98H60.5405C60.8473 196.298 61.3359 195.756 62.0064 195.352C62.6825 194.943 63.4922 194.739 64.4354 194.739C65.3161 194.739 66.0916 194.926 66.7621 195.301C67.4325 195.67 67.9553 196.202 68.3303 196.895C68.7109 197.582 68.9013 198.406 68.9013 199.366V208H67.87V199.409C67.87 198.29 67.5376 197.392 66.8729 196.716C66.2081 196.04 65.3303 195.702 64.2393 195.702C63.5064 195.702 62.853 195.861 62.2791 196.179C61.7053 196.497 61.2536 196.943 60.924 197.517C60.6001 198.085 60.4382 198.75 60.4382 199.511ZM82.5099 212.628C81.0099 212.628 79.6321 212.361 78.3764 211.827C77.1207 211.298 76.0327 210.554 75.1122 209.594C74.1918 208.634 73.4815 207.5 72.9815 206.193C72.4815 204.886 72.2315 203.455 72.2315 201.898C72.2315 200.352 72.4815 198.929 72.9815 197.628C73.4872 196.327 74.1974 195.199 75.1122 194.244C76.0327 193.284 77.1151 192.54 78.3594 192.011C79.6037 191.483 80.9616 191.219 82.4332 191.219C83.8878 191.219 85.2173 191.491 86.4219 192.037C87.6321 192.577 88.6776 193.321 89.5582 194.27C90.4446 195.213 91.1264 196.301 91.6037 197.534C92.0866 198.761 92.3281 200.065 92.3281 201.446C92.3281 202.236 92.2457 202.991 92.081 203.713C91.9219 204.435 91.6747 205.077 91.3395 205.639C91.0099 206.202 90.5866 206.645 90.0696 206.969C89.5582 207.293 88.9474 207.455 88.2372 207.455C87.8054 207.455 87.419 207.378 87.0781 207.224C86.7372 207.071 86.4673 206.818 86.2685 206.466C86.0696 206.114 85.9588 205.639 85.9361 205.043H85.8509C85.6236 205.531 85.3196 205.969 84.9389 206.355C84.5639 206.741 84.1236 207.045 83.6179 207.267C83.1122 207.483 82.5497 207.588 81.9304 207.582C81.2372 207.571 80.6009 207.418 80.0213 207.122C79.4418 206.827 78.9418 206.42 78.5213 205.903C78.1065 205.381 77.7827 204.776 77.5497 204.088C77.3224 203.395 77.2088 202.653 77.2088 201.864C77.2088 201.085 77.3281 200.364 77.5668 199.699C77.8111 199.028 78.1463 198.44 78.5724 197.935C79.0043 197.429 79.5071 197.031 80.081 196.741C80.6548 196.452 81.2713 196.295 81.9304 196.273C82.5213 196.256 83.0724 196.347 83.5838 196.545C84.0952 196.739 84.544 197.014 84.9304 197.372C85.3168 197.73 85.6122 198.145 85.8168 198.616H85.902V196.477H86.8651V204.565C86.8651 205.281 86.9673 205.793 87.1719 206.099C87.3821 206.406 87.7429 206.56 88.2543 206.56C88.9077 206.56 89.4673 206.352 89.9332 205.938C90.3991 205.523 90.7543 204.932 90.9986 204.165C91.2486 203.398 91.3736 202.486 91.3736 201.429C91.3736 200.429 91.2315 199.466 90.9474 198.54C90.669 197.614 90.2656 196.761 89.7372 195.983C89.2145 195.205 88.5838 194.526 87.8452 193.946C87.1065 193.366 86.277 192.918 85.3565 192.599C84.4418 192.276 83.456 192.114 82.3991 192.114C81.081 192.114 79.8622 192.358 78.7429 192.847C77.6293 193.335 76.6577 194.02 75.8281 194.901C75.0043 195.781 74.3622 196.818 73.902 198.011C73.4474 199.205 73.2202 200.509 73.2202 201.923C73.2202 203.338 73.4474 204.645 73.902 205.844C74.3622 207.037 75.0071 208.071 75.8366 208.946C76.6719 209.827 77.6577 210.509 78.794 210.991C79.9304 211.474 81.1776 211.716 82.5355 211.716C83.1605 211.716 83.7741 211.653 84.3764 211.528C84.9787 211.403 85.544 211.233 86.0724 211.017C86.6009 210.807 87.0696 210.571 87.4787 210.31L87.8622 211.128C87.3849 211.435 86.8509 211.699 86.2599 211.92C85.6747 212.148 85.0611 212.321 84.419 212.44C83.7827 212.565 83.1463 212.628 82.5099 212.628ZM82.0241 206.636C82.8026 206.636 83.4844 206.435 84.0696 206.031C84.6548 205.622 85.1122 205.057 85.4418 204.335C85.7713 203.614 85.9361 202.778 85.9361 201.83C85.9361 200.881 85.7685 200.06 85.4332 199.366C85.098 198.673 84.6378 198.139 84.0526 197.764C83.4673 197.384 82.7997 197.193 82.0497 197.193C81.3111 197.193 80.6463 197.403 80.0554 197.824C79.4702 198.244 79.0071 198.807 78.6662 199.511C78.331 200.21 78.1634 200.983 78.1634 201.83C78.1634 202.699 78.3253 203.5 78.6491 204.233C78.973 204.96 79.4247 205.543 80.0043 205.98C80.5838 206.418 81.2571 206.636 82.0241 206.636ZM94.8871 191.534V190.545H107.117V191.534H101.535V208H100.469V191.534H94.8871ZM110.684 208V194.909H111.715V208H110.684ZM111.204 192.591C110.977 192.591 110.778 192.511 110.607 192.352C110.442 192.193 110.36 192 110.36 191.773C110.36 191.545 110.442 191.352 110.607 191.193C110.772 191.034 110.971 190.955 111.204 190.955C111.431 190.955 111.627 191.034 111.792 191.193C111.962 191.352 112.048 191.545 112.048 191.773C112.048 192 111.965 192.193 111.8 192.352C111.636 192.511 111.437 192.591 111.204 192.591ZM120.698 194.909V195.838H114.979V194.909H120.698ZM116.914 191.773H117.945V204.906C117.945 205.44 118.048 205.878 118.252 206.219C118.462 206.554 118.735 206.804 119.07 206.969C119.411 207.128 119.775 207.207 120.161 207.207C120.349 207.207 120.511 207.193 120.647 207.165C120.789 207.136 120.923 207.099 121.048 207.054L121.303 208C121.144 208.057 120.968 208.105 120.775 208.145C120.582 208.19 120.354 208.213 120.093 208.213C119.548 208.213 119.031 208.091 118.542 207.847C118.059 207.602 117.667 207.247 117.366 206.781C117.065 206.315 116.914 205.753 116.914 205.094V191.773ZM128.023 208.281C127.268 208.281 126.575 208.131 125.944 207.83C125.319 207.528 124.816 207.088 124.435 206.509C124.06 205.929 123.873 205.224 123.873 204.395C123.873 203.849 123.969 203.369 124.163 202.955C124.356 202.54 124.654 202.182 125.058 201.881C125.461 201.58 125.978 201.332 126.609 201.139C127.239 200.94 127.992 200.787 128.867 200.679C129.532 200.599 130.126 200.523 130.648 200.449C131.171 200.369 131.58 200.247 131.876 200.082C132.177 199.918 132.327 199.668 132.327 199.332V198.787C132.327 197.832 132.026 197.074 131.424 196.511C130.822 195.949 129.992 195.668 128.935 195.668C127.998 195.668 127.208 195.875 126.566 196.29C125.93 196.699 125.484 197.227 125.228 197.875L124.248 197.509C124.498 196.884 124.859 196.364 125.33 195.949C125.808 195.534 126.353 195.224 126.967 195.02C127.586 194.815 128.234 194.713 128.91 194.713C129.495 194.713 130.052 194.795 130.58 194.96C131.114 195.125 131.589 195.375 132.004 195.71C132.424 196.045 132.756 196.474 133.001 196.997C133.245 197.514 133.367 198.134 133.367 198.855V208H132.327V205.639H132.251C132.023 206.128 131.711 206.574 131.313 206.977C130.921 207.375 130.447 207.693 129.89 207.932C129.339 208.165 128.717 208.281 128.023 208.281ZM128.126 207.318C128.944 207.318 129.668 207.119 130.299 206.722C130.935 206.318 131.433 205.767 131.79 205.068C132.148 204.369 132.327 203.577 132.327 202.69V200.764C132.197 200.878 132.006 200.98 131.756 201.071C131.512 201.156 131.234 201.233 130.921 201.301C130.614 201.364 130.29 201.42 129.95 201.472C129.614 201.517 129.288 201.56 128.969 201.599C128.015 201.713 127.237 201.889 126.634 202.128C126.038 202.361 125.6 202.668 125.322 203.048C125.049 203.429 124.913 203.889 124.913 204.429C124.913 205.321 125.219 206.026 125.833 206.543C126.447 207.06 127.211 207.318 128.126 207.318ZM138.766 199.511V208H137.727V194.909H138.741V196.98H138.843C139.15 196.304 139.641 195.761 140.317 195.352C140.994 194.943 141.798 194.739 142.729 194.739C143.61 194.739 144.383 194.926 145.048 195.301C145.718 195.676 146.241 196.21 146.616 196.903C146.996 197.591 147.187 198.412 147.187 199.366V208H146.147V199.409C146.147 198.295 145.815 197.401 145.15 196.724C144.491 196.043 143.619 195.702 142.533 195.702C141.806 195.702 141.158 195.861 140.59 196.179C140.022 196.497 139.576 196.943 139.252 197.517C138.928 198.085 138.766 198.75 138.766 199.511ZM152.479 208.111C152.224 208.111 152.005 208.023 151.823 207.847C151.647 207.665 151.559 207.446 151.559 207.19C151.559 206.94 151.647 206.724 151.823 206.543C152.005 206.361 152.224 206.27 152.479 206.27C152.729 206.27 152.945 206.361 153.127 206.543C153.309 206.724 153.4 206.94 153.4 207.19C153.4 207.361 153.357 207.517 153.272 207.659C153.192 207.795 153.082 207.906 152.94 207.991C152.803 208.071 152.65 208.111 152.479 208.111ZM166.152 203.355V194.909H167.192V208H166.152V205.878H166.067C165.76 206.554 165.263 207.105 164.575 207.531C163.893 207.957 163.087 208.17 162.155 208.17C161.297 208.17 160.538 207.983 159.879 207.608C159.22 207.233 158.703 206.702 158.328 206.014C157.953 205.321 157.766 204.497 157.766 203.543V194.909H158.805V203.5C158.805 204.591 159.135 205.474 159.794 206.151C160.459 206.821 161.317 207.156 162.368 207.156C163.05 207.156 163.678 207.003 164.251 206.696C164.825 206.389 165.286 205.952 165.632 205.384C165.979 204.81 166.152 204.134 166.152 203.355ZM172.403 202.886L172.386 201.395H172.659L179.205 194.909H180.56L174.551 200.875L174.449 200.918L172.403 202.886ZM171.5 208V190.545H172.54V208H171.5ZM179.503 208L173.98 201.02L174.73 200.33L180.832 208H179.503Z" fill="black"/>
<path d="M250.693 203.721C251.091 203.338 251.104 202.705 250.721 202.307L244.483 195.819C244.1 195.421 243.467 195.409 243.069 195.792C242.671 196.174 242.658 196.808 243.041 197.206L248.586 202.972L242.819 208.517C242.421 208.9 242.409 209.533 242.792 209.931C243.174 210.329 243.808 210.342 244.206 209.959L250.693 203.721ZM198.98 203L249.98 204L250.02 202L199.02 201L198.98 203Z" fill="black"/>
<g style="mix-blend-mode:darken">
<path d="M34.1364 98.7841V94.7273H53.25V98.7841H46.125V118H41.2614V98.7841H34.1364ZM61.3182 94.7273V118H56.3977V94.7273H61.3182ZM64.4801 98.7841V94.7273H83.5938V98.7841H76.4688V118H71.6051V98.7841H64.4801ZM87.9091 118H82.6364L90.6705 94.7273H97.0114L105.034 118H99.7614L93.9318 100.045H93.75L87.9091 118ZM87.5795 108.852H100.034V112.693H87.5795V108.852ZM127.301 94.7273V118H123.051L112.926 103.352H112.756V118H107.835V94.7273H112.153L122.199 109.364H122.403V94.7273H127.301Z" fill="black"/>
</g>
<line x1="16.9978" y1="158.5" x2="250.276" y2="157.471" stroke="#7E7777"/>
<path fill-rule="evenodd" clip-rule="evenodd" d="M122 130C189.379 130 244 100.899 244 65C244 29.1015 189.379 0 122 0C54.6213 0 0 29.1015 0 65C0 100.899 54.6213 130 122 130ZM109.683 126.717C163.132 126.717 206.462 103.348 206.462 74.5202C206.462 45.6926 163.132 22.3232 109.683 22.3232C56.2332 22.3232 12.9038 45.6926 12.9038 74.5202C12.9038 103.348 56.2332 126.717 109.683 126.717Z" fill="url(#paint0_linear_62_9)"/>
<defs>
<linearGradient id="paint0_linear_62_9" x1="221.712" y1="18.3838" x2="185.503" y2="147.771" gradientUnits="userSpaceOnUse">
<stop offset="0.171717" stop-color="#DC40BA"/>
<stop offset="1" stop-opacity="0"/>
</linearGradient>
</defs>
</svg>
