<svg width="251" height="189" viewBox="0 0 251 189" fill="none" xmlns="http://www.w3.org/2000/svg">
<path d="M18.1591 168.101V166.226H31.25V168.101H25.7614V183.681H23.6477V168.101H18.1591ZM37.8295 183.954C36.5682 183.954 35.4801 183.675 34.5653 183.118C33.6562 182.556 32.9545 181.772 32.4602 180.766C31.9716 179.755 31.7273 178.579 31.7273 177.238C31.7273 175.897 31.9716 174.715 32.4602 173.692C32.9545 172.664 33.642 171.863 34.5227 171.289C35.4091 170.709 36.4432 170.419 37.625 170.419C38.3068 170.419 38.9801 170.533 39.6449 170.76C40.3097 170.988 40.9148 171.357 41.4602 171.868C42.0057 172.374 42.4403 173.044 42.7642 173.88C43.0881 174.715 43.25 175.743 43.25 176.965V177.817H33.1591V176.079H41.2045C41.2045 175.34 41.0568 174.681 40.7614 174.101C40.4716 173.522 40.0568 173.064 39.517 172.729C38.983 172.394 38.3523 172.226 37.625 172.226C36.8239 172.226 36.1307 172.425 35.5455 172.823C34.9659 173.215 34.5199 173.726 34.2074 174.357C33.8949 174.988 33.7386 175.664 33.7386 176.385V177.544C33.7386 178.533 33.9091 179.371 34.25 180.059C34.5966 180.74 35.0767 181.26 35.6903 181.618C36.304 181.971 37.017 182.147 37.8295 182.147C38.358 182.147 38.8352 182.073 39.2614 181.925C39.6932 181.772 40.0653 181.544 40.3778 181.243C40.6903 180.936 40.9318 180.556 41.1023 180.101L43.0455 180.647C42.8409 181.306 42.4972 181.885 42.0142 182.385C41.5313 182.88 40.9347 183.266 40.2244 183.544C39.5142 183.817 38.7159 183.954 37.8295 183.954ZM51.6278 183.954C50.4006 183.954 49.3438 183.664 48.4574 183.084C47.571 182.505 46.8892 181.706 46.4119 180.689C45.9347 179.672 45.696 178.51 45.696 177.204C45.696 175.874 45.9403 174.701 46.429 173.684C46.9233 172.661 47.6108 171.863 48.4915 171.289C49.3778 170.709 50.4119 170.419 51.5938 170.419C52.5142 170.419 53.3438 170.59 54.0824 170.931C54.821 171.272 55.4261 171.749 55.8977 172.363C56.3693 172.976 56.6619 173.692 56.7756 174.51H54.7642C54.6108 173.914 54.2699 173.385 53.7415 172.925C53.2188 172.459 52.5142 172.226 51.6278 172.226C50.8438 172.226 50.1563 172.431 49.5653 172.84C48.9801 173.243 48.5227 173.814 48.1932 174.553C47.8693 175.286 47.7074 176.147 47.7074 177.135C47.7074 178.147 47.8665 179.027 48.1847 179.777C48.5085 180.527 48.9631 181.11 49.5483 181.525C50.1392 181.939 50.8324 182.147 51.6278 182.147C52.1506 182.147 52.625 182.056 53.0511 181.874C53.4773 181.692 53.8381 181.431 54.1335 181.09C54.429 180.749 54.6392 180.34 54.7642 179.863H56.7756C56.6619 180.635 56.3807 181.331 55.9318 181.951C55.4886 182.564 54.9006 183.053 54.1676 183.417C53.4403 183.775 52.5938 183.954 51.6278 183.954ZM61.7273 175.806V183.681H59.7159V166.226H61.7273V172.635H61.8977C62.2045 171.959 62.6648 171.422 63.2784 171.025C63.8977 170.621 64.7216 170.419 65.75 170.419C66.642 170.419 67.4233 170.598 68.0938 170.956C68.7642 171.309 69.2841 171.851 69.6534 172.584C70.0284 173.311 70.2159 174.238 70.2159 175.363V183.681H68.2045V175.499C68.2045 174.459 67.9347 173.655 67.3949 173.087C66.8608 172.513 66.1193 172.226 65.1705 172.226C64.5114 172.226 63.9205 172.365 63.3977 172.644C62.8807 172.922 62.4716 173.329 62.1705 173.863C61.875 174.397 61.7273 175.044 61.7273 175.806ZM83.9524 188.283C82.2138 188.283 80.6768 188.044 79.3416 187.567C78.0064 187.096 76.8842 186.4 75.9751 185.479C75.0661 184.559 74.3786 183.431 73.9126 182.096C73.4467 180.76 73.2138 179.232 73.2138 177.51C73.2138 175.846 73.4496 174.357 73.9212 173.044C74.3984 171.732 75.0888 170.618 75.9922 169.704C76.9013 168.783 78.0036 168.081 79.299 167.598C80.6001 167.115 82.0717 166.874 83.7138 166.874C85.3104 166.874 86.7081 167.135 87.907 167.658C89.1115 168.175 90.1172 168.877 90.924 169.763C91.7365 170.644 92.3445 171.635 92.7479 172.738C93.157 173.84 93.3615 174.976 93.3615 176.147C93.3615 176.971 93.3217 177.806 93.2422 178.652C93.1626 179.499 92.995 180.277 92.7393 180.988C92.4837 181.692 92.0888 182.26 91.5547 182.692C91.0263 183.124 90.3104 183.34 89.407 183.34C89.0092 183.34 88.5717 183.277 88.0945 183.152C87.6172 183.027 87.1939 182.82 86.8246 182.53C86.4553 182.24 86.2365 181.851 86.1683 181.363H86.0661C85.9297 181.692 85.7195 182.005 85.4354 182.3C85.157 182.596 84.7905 182.831 84.3359 183.007C83.8871 183.184 83.3388 183.26 82.6911 183.238C81.9524 183.209 81.3018 183.044 80.7393 182.743C80.1768 182.436 79.7053 182.022 79.3246 181.499C78.9496 180.971 78.6655 180.36 78.4723 179.667C78.2848 178.968 78.1911 178.215 78.1911 177.408C78.1911 176.641 78.3047 175.939 78.532 175.303C78.7592 174.667 79.0746 174.11 79.478 173.632C79.8871 173.155 80.3643 172.775 80.9098 172.49C81.4609 172.201 82.0547 172.022 82.6911 171.954C83.2592 171.897 83.7763 171.922 84.2422 172.03C84.7081 172.132 85.0916 172.289 85.3928 172.499C85.6939 172.704 85.8842 172.931 85.9638 173.181H86.0661V172.226H87.8729V179.931C87.8729 180.408 88.0064 180.829 88.2734 181.192C88.5405 181.556 88.9297 181.738 89.4411 181.738C90.0206 181.738 90.4638 181.539 90.7706 181.141C91.0831 180.743 91.2962 180.13 91.4098 179.3C91.5291 178.471 91.5888 177.408 91.5888 176.113C91.5888 175.351 91.4837 174.601 91.2734 173.863C91.0689 173.118 90.7564 172.422 90.3359 171.775C89.9212 171.127 89.3956 170.556 88.7592 170.061C88.1229 169.567 87.3757 169.181 86.5178 168.902C85.6655 168.618 84.6967 168.476 83.6115 168.476C82.2763 168.476 81.0803 168.684 80.0234 169.098C78.9723 169.507 78.0774 170.107 77.3388 170.897C76.6058 171.681 76.0462 172.635 75.6598 173.76C75.2791 174.88 75.0888 176.152 75.0888 177.579C75.0888 179.027 75.2791 180.314 75.6598 181.439C76.0462 182.564 76.6143 183.513 77.3643 184.286C78.12 185.059 79.0547 185.644 80.1683 186.042C81.282 186.445 82.5661 186.647 84.0206 186.647C84.6456 186.647 85.2621 186.587 85.87 186.468C86.478 186.348 87.0149 186.218 87.4808 186.076C87.9467 185.934 88.282 185.829 88.4865 185.76L88.9638 187.329C88.6115 187.476 88.1513 187.624 87.5831 187.772C87.0206 187.919 86.4183 188.042 85.7763 188.138C85.1399 188.235 84.532 188.283 83.9524 188.283ZM82.9638 181.499C83.7251 181.499 84.3416 181.346 84.8132 181.039C85.2848 180.732 85.6286 180.269 85.8445 179.65C86.0604 179.03 86.1683 178.249 86.1683 177.306C86.1683 176.351 86.049 175.607 85.8104 175.073C85.5717 174.539 85.2195 174.164 84.7536 173.948C84.2876 173.732 83.7138 173.624 83.032 173.624C82.3842 173.624 81.8303 173.794 81.37 174.135C80.9155 174.471 80.5661 174.919 80.3217 175.482C80.0831 176.039 79.9638 176.647 79.9638 177.306C79.9638 178.033 80.0604 178.718 80.2536 179.36C80.4467 179.996 80.7621 180.513 81.1996 180.911C81.6371 181.303 82.2251 181.499 82.9638 181.499ZM95.6903 168.101V166.226H108.781V168.101H103.293V183.681H101.179V168.101H95.6903ZM111.771 183.681V170.59H113.782V183.681H111.771ZM112.793 168.408C112.401 168.408 112.063 168.275 111.779 168.007C111.501 167.74 111.362 167.419 111.362 167.044C111.362 166.669 111.501 166.348 111.779 166.081C112.063 165.814 112.401 165.681 112.793 165.681C113.185 165.681 113.521 165.814 113.799 166.081C114.083 166.348 114.225 166.669 114.225 167.044C114.225 167.419 114.083 167.74 113.799 168.007C113.521 168.275 113.185 168.408 112.793 168.408ZM123.159 170.59V172.294H116.375V170.59H123.159ZM118.352 167.454H120.364V179.931C120.364 180.499 120.446 180.925 120.611 181.209C120.781 181.488 120.997 181.675 121.259 181.772C121.526 181.863 121.807 181.908 122.102 181.908C122.324 181.908 122.506 181.897 122.648 181.874C122.79 181.846 122.903 181.823 122.989 181.806L123.398 183.613C123.261 183.664 123.071 183.715 122.827 183.766C122.582 183.823 122.273 183.851 121.898 183.851C121.33 183.851 120.773 183.729 120.227 183.485C119.688 183.24 119.239 182.868 118.881 182.368C118.528 181.868 118.352 181.238 118.352 180.476V167.454ZM130.037 183.988C129.207 183.988 128.455 183.831 127.778 183.519C127.102 183.201 126.565 182.743 126.168 182.147C125.77 181.544 125.571 180.817 125.571 179.965C125.571 179.215 125.719 178.607 126.014 178.141C126.31 177.669 126.705 177.3 127.199 177.033C127.693 176.766 128.239 176.567 128.835 176.436C129.438 176.3 130.043 176.192 130.651 176.113C131.446 176.01 132.091 175.934 132.585 175.882C133.085 175.826 133.449 175.732 133.676 175.601C133.909 175.471 134.026 175.243 134.026 174.919V174.851C134.026 174.01 133.795 173.357 133.335 172.891C132.881 172.425 132.19 172.192 131.264 172.192C130.304 172.192 129.551 172.402 129.006 172.823C128.46 173.243 128.077 173.692 127.855 174.169L125.946 173.488C126.287 172.692 126.741 172.073 127.31 171.63C127.884 171.181 128.509 170.868 129.185 170.692C129.866 170.51 130.537 170.419 131.196 170.419C131.616 170.419 132.099 170.471 132.645 170.573C133.196 170.669 133.727 170.871 134.239 171.178C134.756 171.485 135.185 171.948 135.526 172.567C135.866 173.186 136.037 174.016 136.037 175.056V183.681H134.026V181.908H133.923C133.787 182.192 133.56 182.496 133.241 182.82C132.923 183.144 132.5 183.419 131.972 183.647C131.443 183.874 130.798 183.988 130.037 183.988ZM130.344 182.181C131.139 182.181 131.81 182.025 132.355 181.712C132.906 181.4 133.321 180.996 133.599 180.502C133.884 180.007 134.026 179.488 134.026 178.942V177.101C133.94 177.204 133.753 177.297 133.463 177.382C133.179 177.462 132.849 177.533 132.474 177.596C132.105 177.652 131.744 177.704 131.392 177.749C131.045 177.789 130.764 177.823 130.548 177.851C130.026 177.919 129.537 178.03 129.082 178.184C128.634 178.331 128.27 178.556 127.991 178.857C127.719 179.152 127.582 179.556 127.582 180.067C127.582 180.766 127.841 181.294 128.358 181.652C128.881 182.005 129.543 182.181 130.344 182.181ZM141.719 175.806V183.681H139.708V170.59H141.651V172.635H141.822C142.129 171.971 142.594 171.436 143.219 171.033C143.844 170.624 144.651 170.419 145.64 170.419C146.526 170.419 147.302 170.601 147.967 170.965C148.631 171.323 149.148 171.868 149.518 172.601C149.887 173.329 150.072 174.249 150.072 175.363V183.681H148.06V175.499C148.06 174.471 147.793 173.669 147.259 173.096C146.725 172.516 145.992 172.226 145.06 172.226C144.418 172.226 143.844 172.365 143.339 172.644C142.839 172.922 142.444 173.329 142.154 173.863C141.864 174.397 141.719 175.044 141.719 175.806ZM155.213 183.817C154.793 183.817 154.432 183.667 154.131 183.365C153.83 183.064 153.679 182.704 153.679 182.283C153.679 181.863 153.83 181.502 154.131 181.201C154.432 180.9 154.793 180.749 155.213 180.749C155.634 180.749 155.994 180.9 156.295 181.201C156.597 181.502 156.747 181.863 156.747 182.283C156.747 182.561 156.676 182.817 156.534 183.05C156.398 183.283 156.213 183.471 155.98 183.613C155.753 183.749 155.497 183.817 155.213 183.817ZM168.607 178.329V170.59H170.618V183.681H168.607V181.465H168.47C168.163 182.13 167.686 182.695 167.038 183.161C166.391 183.621 165.572 183.851 164.584 183.851C163.766 183.851 163.038 183.672 162.402 183.314C161.766 182.951 161.266 182.405 160.902 181.678C160.538 180.945 160.357 180.022 160.357 178.908V170.59H162.368V178.772C162.368 179.726 162.635 180.488 163.169 181.056C163.709 181.624 164.396 181.908 165.232 181.908C165.732 181.908 166.24 181.78 166.757 181.525C167.28 181.269 167.717 180.877 168.07 180.348C168.428 179.82 168.607 179.147 168.607 178.329ZM176.177 178.908L176.143 176.419H176.552L182.279 170.59H184.768L178.665 176.76H178.495L176.177 178.908ZM174.302 183.681V166.226H176.313V183.681H174.302ZM182.62 183.681L177.506 177.204L178.938 175.806L185.177 183.681H182.62Z" fill="white"/>
<path d="M250.692 177.034C251.091 176.65 251.105 176.017 250.724 175.62L244.504 169.149C244.123 168.752 243.49 168.741 243.09 169.125C242.691 169.509 242.677 170.142 243.058 170.539L248.587 176.291L242.803 181.85C242.404 182.233 242.39 182.866 242.771 183.263C243.153 183.661 243.786 183.671 244.185 183.288L250.692 177.034ZM198.977 176.446L249.978 177.314L250.023 175.315L199.023 174.446L198.977 176.446Z" fill="white"/>
<line y1="-0.5" x2="233.28" y2="-0.5" transform="matrix(0.999993 -0.00383262 0.00508053 0.999987 17 138.099)" stroke="white"/>
<path d="M18.1364 87.7841V83.7273H37.25V87.7841H30.125V107H25.2614V87.7841H18.1364ZM45.3182 83.7273V107H40.3977V83.7273H45.3182ZM48.4801 87.7841V83.7273H67.5938V87.7841H60.4688V107H55.6051V87.7841H48.4801ZM71.9091 107H66.6364L74.6705 83.7273H81.0114L89.0341 107H83.7614L77.9318 89.0455H77.75L71.9091 107ZM71.5795 97.8523H84.0341V101.693H71.5795V97.8523ZM111.301 83.7273V107H107.051L96.9261 92.3523H96.7557V107H91.8352V83.7273H96.1534L106.199 98.3636H106.403V83.7273H111.301Z" fill="white"/>
<path fill-rule="evenodd" clip-rule="evenodd" d="M122 112.911C189.379 112.911 244 87.6349 244 56.4554C244 25.2759 189.379 0 122 0C54.6213 0 0 25.2759 0 56.4554C0 87.6349 54.6213 112.911 122 112.911ZM109.683 110.06C163.132 110.06 206.462 89.7622 206.462 64.7241C206.462 39.6861 163.132 19.3887 109.683 19.3887C56.2332 19.3887 12.9038 39.6861 12.9038 64.7241C12.9038 89.7622 56.2332 110.06 109.683 110.06Z" fill="url(#paint0_linear_66_99)"/>
<defs>
<linearGradient id="paint0_linear_66_99" x1="221.712" y1="15.9672" x2="193.901" y2="130.387" gradientUnits="userSpaceOnUse">
<stop offset="0.171717" stop-color="#DC40BA"/>
<stop offset="1" stop-opacity="0"/>
</linearGradient>
</defs>
</svg>
